<?xml version="1.0" encoding="utf-8"?>
<!-- Generator: Adobe Illustrator 22.0.1, SVG Export Plug-In . SVG Version: 6.00 Build 0)  -->
<svg version="1.1" id="Laag_1" xmlns="http://www.w3.org/2000/svg" xmlns:xlink="http://www.w3.org/1999/xlink" x="0px" y="0px"
	 viewBox="0 0 549.4 1118.5" style="enable-background:new 0 0 549.4 1118.5;" xml:space="preserve">
<style type="text/css">
	.st0{fill:url(#SVGID_1_);}
	.st1{fill:url(#SVGID_2_);}
</style>
<linearGradient id="SVGID_1_" gradientUnits="userSpaceOnUse" x1="127.0493" y1="961.7477" x2="647.8635" y2="59.671">
	<stop  offset="0" style="stop-color:#2B3F9F;stop-opacity:0"/>
	<stop  offset="1" style="stop-color:#2B3F9F;stop-opacity:0.5"/>
</linearGradient>
<path class="st0" d="M549.4,45.3l-284.2,285l226.9,0c7.3,0,13.7,4.3,16.5,11s1.3,14.3-3.9,19.4L371.2,494.3
	c-3.4,3.4-7.9,5.2-12.6,5.2H113.5v153.4h100.6v-59.8c0-7.2,4.3-13.7,11-16.5c6.7-2.8,14.3-1.3,19.4,3.9l125,125
	c3.4,3.4,5.2,7.8,5.2,12.6v369.4h-30V723.1L244.1,622.4v42.6c0,9.8-8,17.8-17.8,17.8H101.3c-9.8,0-17.8-8-17.8-17.8V487.4
	c0-9.8,8-17.8,17.8-17.8h252.2l109.2-109.2l-226.8,0c-7.2,0-13.7-4.3-16.5-11c-2.8-6.7-1.3-14.3,3.8-19.4L549.4,2.8V45.3z"/>
<linearGradient id="SVGID_2_" gradientUnits="userSpaceOnUse" x1="-40.1065" y1="1043.1903" x2="491.4205" y2="122.5585">
	<stop  offset="0" style="stop-color:#2B3F9F;stop-opacity:0"/>
	<stop  offset="1" style="stop-color:#2B3F9F;stop-opacity:0.5"/>
</linearGradient>
<path class="st1" d="M36,427.9v163.4h108.9v-67c0-8.4,6.9-15.3,15.3-15.3h58.3c4,0,7.9,1.6,10.8,4.4L447,731.1
	c4.4,4.4,5.7,10.9,3.3,16.6s-7.9,9.4-14.1,9.4H107.8l103.9,103.9c6,6,6,15.6,0,21.6L17.8,1076.6l-21.2-21.2l183.5-183.5L61.5,753.3
	c-4.4-4.4-5.7-10.9-3.3-16.6c2.4-5.7,7.9-9.4,14.1-9.4h328.3L212.4,539h-37.5v67c0,8.4-6.8,15.3-15.3,15.3H21.3
	C12.9,621.3,6,614.5,6,606V413.2c0-8.4,6.9-15.3,15.3-15.3h286.2L549.4,156v42.4l-225,225c-2.9,2.9-6.7,4.5-10.8,4.5H36z"/>
</svg>
