<?xml version="1.0" encoding="utf-8"?>
<!-- Generator: Adobe Illustrator 22.0.1, SVG Export Plug-In . SVG Version: 6.00 Build 0)  -->
<svg version="1.1" id="Laag_1" xmlns="http://www.w3.org/2000/svg" xmlns:xlink="http://www.w3.org/1999/xlink" x="0px" y="0px"
	 viewBox="0 0 420.7 594.6" style="enable-background:new 0 0 420.7 594.6;" xml:space="preserve">
<style type="text/css">
	.st0{fill:url(#Path_3_1_);}
	.st1{fill:#FFFFFF;}
	.st2{fill:#2B3F9F;}
	.st3{fill:none;stroke:#2B3F9F;stroke-width:4;stroke-linecap:round;}
	.st4{fill:none;stroke:#2B3F9F;stroke-width:6;stroke-linecap:round;}
</style>
<linearGradient id="Path_3_1_" gradientUnits="userSpaceOnUse" x1="-560.7588" y1="1556.8046" x2="-560.1378" y2="1556.2786" gradientTransform="matrix(421.0281 0 0 -577.606 236284.4219 899313.6875)">
	<stop  offset="0" style="stop-color:#2B3F9F;stop-opacity:0.271"/>
	<stop  offset="1" style="stop-color:#2B3F9F;stop-opacity:0"/>
</linearGradient>
<path id="Path_3" class="st0" d="M420.7,38.9l-21.3-17.3L368.9,6.1l-18.2-2.7l-16.4,5l-11.8,8.2L312,34.8l-3.6,15.9l-4.1,31.9
	l-5.5,38.2L287.9,144l-19.1,15l-29.6,5.5l-23.7-5.5l-19.6-9.6l-26.4-12.7l-10.9-2.7l4.6,11.8l2.7,18.7l-7.3,27.3l-15,19.1
	l-23.7,22.3l-28.2,14.6l-37.8-68.3L7.5,199.1l24.2,24.8l-4.7,9.3L423.5,581l5-536.6L420.7,38.9z"/>
<g id="Path_1" transform="translate(954.519 284.976) rotate(-30)">
	<path class="st1" d="M-717.3-460.5l4.5-64.3l0-0.1l0-0.1l-4.5-65.5c1,0,2.3,0,3.8,0c5.7,0,14.7,0.3,25.1,1.6
		c12.4,1.6,23.6,4.3,33.3,7.9c12.3,4.7,22,11,28.7,18.8c3.9,4.4,6.8,9.4,8.9,14.8c2.2,5.9,3.3,12.4,3.3,19.3c0,4.1-0.4,8-1.1,11.8
		c-0.7,3.6-1.8,7-3.2,10.3c-2.6,6.1-6.4,11.6-11.4,16.6c-8.5,8.4-20.4,15.3-35.3,20.2c-6,2-12.4,3.7-19.2,5c-5.5,1.1-11.2,2-17,2.6
		C-708.8-460.8-714.4-460.6-717.3-460.5z"/>
	<path class="st2" d="M-713.5-588.6c-0.6,0-1.2,0-1.7,0l4.4,63.4l0,0.3l0,0.3l-4.4,62.1c8.6-0.4,29.1-1.9,49.2-8.6
		c14.7-4.9,26.3-11.5,34.5-19.7c4.8-4.8,8.5-10.1,11-16c1.3-3.1,2.4-6.4,3.1-9.9c0.7-3.6,1.1-7.4,1.1-11.4c0-6.7-1.1-13-3.2-18.6
		c-1.9-5.2-4.8-9.9-8.5-14.2c-6.6-7.5-16-13.7-27.9-18.2c-9.5-3.6-20.5-6.3-32.8-7.8C-698.9-588.3-707.8-588.6-713.5-588.6
		L-713.5-588.6 M-713.5-592.6c22.5,0,101.2,4.3,101.2,64.5c0,69.2-104.1,69.7-107.1,69.7c0,0-0.1,0-0.1,0l4.7-66.5l-4.7-67.5
		C-719.4-592.5-717.2-592.6-713.5-592.6z"/>
</g>
<g id="Ellipse_1" transform="translate(954.519 284.976) rotate(-30)">
	
		<ellipse transform="matrix(-1 2.341061e-06 -2.341061e-06 -1 -1438.8644 -1050.9965)" class="st1" cx="-719.4" cy="-525.5" rx="30" ry="67"/>
	
		<ellipse transform="matrix(-1 2.341061e-06 -2.341061e-06 -1 -1438.8644 -1050.9965)" class="st3" cx="-719.4" cy="-525.5" rx="28" ry="65"/>
</g>
<g id="Rectangle_2" transform="translate(954.715 346.062) rotate(-120)">
	<path class="st1" d="M599.5-749.4L599.5-749.4c3.9,0,7,3.1,7,7l0,0v50l0,0h-14l0,0v-50C592.5-746.3,595.6-749.4,599.5-749.4z"/>
	<path class="st3" d="M599.5-747.4L599.5-747.4c2.8,0,5,2.2,5,5v46c0,1.1-0.9,2-2,2h-6c-1.1,0-2-0.9-2-2v-46
		C594.5-745.2,596.7-747.4,599.5-747.4z"/>
</g>
<g id="Rectangle_3" transform="translate(973.715 379.062) rotate(-120)">
	<path class="st1" d="M599.5-749.4L599.5-749.4c3.9,0,7,3.1,7,7l0,0v50l0,0h-14l0,0v-50C592.5-746.3,595.6-749.4,599.5-749.4z"/>
	<path class="st3" d="M599.5-747.4L599.5-747.4c2.8,0,5,2.2,5,5v46c0,1.1-0.9,2-2,2h-6c-1.1,0-2-0.9-2-2v-46
		C594.5-745.2,596.7-747.4,599.5-747.4z"/>
</g>
<path id="Path_2" class="st4" d="M159.8,134.4c29.5,4.4,72.2,51.2,118,17.8s9.6-110,49.2-139.7s97.4,29.6,97.4,29.6"/>
</svg>
